<svg id="Flat" height="512" viewBox="0 0 512 512" width="512" xmlns="http://www.w3.org/2000/svg"><circle cx="256" cy="256" fill="#ffd754" r="232"/><circle cx="256" cy="256" fill="#edb90c" r="184"/><path d="m168 304a8 8 0 0 0 8-8v-56h35.056l29.789 59.578a8 8 0 1 0 14.31-7.156l-27.135-54.27a40 40 0 0 0 -12.02-78.152h-48a8 8 0 0 0 -8 8v128a8 8 0 0 0 8 8zm72-104a24.027 24.027 0 0 1 -24 24h-40v-48h40a24.027 24.027 0 0 1 24 24z" fill="#fbe36a"/><path d="m280 352a8 8 0 0 0 8-8v-40h24a40 40 0 0 0 0-80h-32a8 8 0 0 0 -8 8v112a8 8 0 0 0 8 8zm56-88a24.028 24.028 0 0 1 -24 24h-24v-48h24a24.028 24.028 0 0 1 24 24z" fill="#fbe36a"/><g fill="#fbefb2"><path d="m74.782 232a8 8 0 0 1 -7.889-9.383 192.259 192.259 0 0 1 155.725-155.724 8 8 0 1 1 2.764 15.76 176.214 176.214 0 0 0 -142.73 142.729 8 8 0 0 1 -7.87 6.618z"/><path d="m287.99 445.229a8 8 0 0 1 -1.372-15.882 176.214 176.214 0 0 0 142.73-142.729 8 8 0 1 1 15.759 2.764 192.259 192.259 0 0 1 -155.725 155.725 8.051 8.051 0 0 1 -1.392.122z"/><circle cx="72" cy="256" r="8"/><circle cx="256" cy="72" r="8"/><circle cx="440" cy="256" r="8"/><circle cx="256" cy="440" r="8"/></g></svg>