<svg height="512" viewBox="0 0 512 512" width="512" xmlns="http://www.w3.org/2000/svg" xmlns:xlink="http://www.w3.org/1999/xlink"><linearGradient id="New_Gradient_Swatch_7" gradientUnits="userSpaceOnUse" x1="81.373" x2="430.627" y1="430.627" y2="81.373"><stop offset="0" stop-color="#816a6a"/><stop offset="1" stop-color="#9d8b8b"/></linearGradient><linearGradient id="New_Gradient_Swatch_5" gradientUnits="userSpaceOnUse" x1="104" x2="408" y1="408" y2="104"><stop offset="0" stop-color="#e3dede"/><stop offset="1" stop-color="#fff"/></linearGradient><linearGradient id="New_Gradient_Swatch_10" gradientUnits="userSpaceOnUse" x1="352" x2="448" y1="208" y2="112"><stop offset="0" stop-color="#72c2c8"/><stop offset="1" stop-color="#b8e1e3"/></linearGradient><linearGradient id="New_Gradient_Swatch_10-2" x1="64" x2="160" xlink:href="#New_Gradient_Swatch_10" y1="400" y2="304"/><g id="_06-Coin" data-name="06-Coin"><g id="filled"><rect fill="url(#New_Gradient_Swatch_7)" height="480" rx="32" width="256" x="128" y="16"/><path d="m128 80h256v352h-256z" fill="url(#New_Gradient_Swatch_5)"/><path d="m496 160-64-64v32h-96v64h96v32z" fill="url(#New_Gradient_Swatch_10)"/><path d="m16 352 64-64v32h96v64h-96v32z" fill="url(#New_Gradient_Swatch_10-2)"/><path d="m504.485 151.515-64-64a12 12 0 0 0 -20.485 8.485v20h-24v-68a44.049 44.049 0 0 0 -44-44h-192a44.049 44.049 0 0 0 -44 44v260h-24v-20a12 12 0 0 0 -20.485-8.485l-64 64a12 12 0 0 0 0 16.97l64 64c7.126 7.588 20.82 1.875 20.485-8.485v-20h24v68a44.049 44.049 0 0 0 44 44h192a44.049 44.049 0 0 0 44-44v-260h24v20c-.334 10.363 13.359 16.071 20.485 8.485l64-64a12 12 0 0 0 0-16.97zm-344.485-123.515h192a20.023 20.023 0 0 1 20 20v20h-232v-20a20.023 20.023 0 0 1 20-20zm192 456h-192a20.023 20.023 0 0 1 -20-20v-20h232v20a20.023 20.023 0 0 1 -20 20zm92-288.971v-3.029a12 12 0 0 0 -12-12h-96a12 12 0 0 0 0 24h36v216h-232v-24h36a12 12 0 0 0 0-24h-96a12 12 0 0 0 -12 12v3.029l-35.029-35.029 35.029-35.029v3.029a12 12 0 0 0 12 12h96a12 12 0 0 0 0-24h-36v-216h232v24h-36a12 12 0 0 0 0 24h96a12 12 0 0 0 12-12v-3.029l35.029 35.029z"/><path d="m240 204h40a12.013 12.013 0 0 1 12 12 12 12 0 0 0 24 0 36.04 36.04 0 0 0 -36-36h-12v-20a12 12 0 0 0 -24 0v20h-4a44 44 0 0 0 0 88h32a20 20 0 0 1 0 40h-40a12.013 12.013 0 0 1 -12-12 12 12 0 0 0 -24 0 36.04 36.04 0 0 0 36 36h12v20a12 12 0 0 0 24 0v-20h4a44 44 0 0 0 0-88h-32a20 20 0 0 1 0-40z"/></g></g></svg>