<svg height="512pt" viewBox="0 -85 512 512" width="512pt" xmlns="http://www.w3.org/2000/svg"><path d="m352 176c0-8.746094-7.253906-16-16-16h-26.667969v32h26.667969c8.746094 0 16-7.253906 16-16zm0 0"/><path d="m245.332031 112c0-8.746094-7.253906-16-16-16h-26.664062v32h26.664062c8.746094 0 16-7.253906 16-16zm0 0"/><path d="m453.332031 0h-394.664062c-32.429688 0-58.667969 26.238281-58.667969 58.667969v224c0 32.425781 26.238281 58.664062 58.667969 58.664062h394.664062c32.429688 0 58.667969-26.238281 58.667969-58.664062v-224c0-32.429688-26.238281-58.667969-58.667969-58.667969zm-178.984375 206.71875c-3.199218 4.269531-8.109375 6.613281-13.015625 6.613281-3.199219 0-6.398437-.851562-9.386719-2.984375l-49.277343-35.199218v22.183593c0 8.746094-7.253907 16-16 16-8.746094 0-16-7.253906-16-16v-53.117187c0-.214844 0-.214844 0-.429688v-63.785156c0-8.746094 7.253906-16 16-16h42.664062c26.453125 0 48 21.546875 48 48 0 24.320312-18.132812 44.375-41.386719 47.574219l34.773438 24.746093c4.269531 3.199219 6.613281 8.105469 6.613281 13.011719v-53.332031c0-8.746094 7.253907-16 16-16h42.667969c26.453125 0 48 21.546875 48 48s-21.546875 48-48 48h-26.667969v37.332031c0 8.746094-7.253906 16-16 16-8.746093 0-16-7.253906-16-16v-64c0 3.203125-1.066406 6.613281-2.984375 9.386719zm104.320313 38.613281h53.332031c8.746094 0 16 7.253907 16 16 0 8.746094-7.253906 16-16 16h-53.332031c-8.746094 0-16-7.253906-16-16 0-8.746093 7.253906-16 16-16zm-229.335938-165.332031c0 8.746094-7.253906 16-16 16h-53.332031c-8.746094 0-16-7.253906-16-16s7.253906-16 16-16h53.332031c8.746094 0 16 7.253906 16 16zm0 0"/></svg>